{
  "source": "C:\\Users\\Peter\\Desktop\\stuff\\MIUN\\quantitative_research\\video_compression\\videos\\BVI-HD\\BVI-HD_CDVL_videos\\ORIG\\Typing_1920x1080_60fps.mp4",
  "output": "C:\\Users\\Peter\\Desktop\\stuff\\MIUN\\quantitative_research\\video_compression\\compressed_videos\\BVI-HD\\h264\\4\\Typing_1920x1080_60fps_h264.mp4",
  "codec": "h264",
  "ok": "Input #0, mov,mp4,m4a,3gp,3g2,mj2, from 'C:\\Users\\Peter\\Desktop\\stuff\\MIUN\\quantitative_research\\video_compression\\videos\\BVI-HD\\BVI-HD_CDVL_videos\\ORIG\\Typing_1920x1080_60fps.mp4':\n  Metadata:\n    major_brand     : isom\n    minor_version   : 512\n    compatible_brands: isomiso2avc1mp41\n    encoder         : Lavf54.28.101\n  Duration: 00:00:05.00, start: 0.000000, bitrate: 203453 kb/s\n  Stream #0:0[0x1](und): Video: h264 (High 4:4:4 Predictive) (avc1 / 0x31637661), yuv420p(progressive), 1920x1080, 203448 kb/s, 60 fps, 60 tbr, 60 tbn (default)\n    Metadata:\n      handler_name    : VideoHandler\n      vendor_id       : [0][0][0][0]\n[out#0/mp4 @ 000001f7fd521500] Codec AVOption b:a (set bitrate (in bits/s)) has not been used for any stream. The most likely reason is either wrong type (e.g. a video option with no video streams) or that it is a private option of some decoder which was not actually used for any stream.\nStream mapping:\n  Stream #0:0 -> #0:0 (h264 (native) -> h264 (libx264))\nPress [q] to stop, [?] for help\n[libx264 @ 000001f7ff0f0940] using cpu capabilities: MMX2 SSE2Fast SSSE3 SSE4.2 AVX FMA3 BMI2 AVX2\n[libx264 @ 000001f7ff0f0940] profile High, level 5.0, 4:2:0, 8-bit\n[libx264 @ 000001f7ff0f0940] 264 - core 165 r3222 b35605a - H.264/MPEG-4 AVC codec - Copyleft 2003-2025 - http://www.videolan.org/x264.html - options: cabac=1 ref=5 deblock=1:0:0 analyse=0x3:0x113 me=hex subme=8 psy=1 psy_rd=1.00:0.00 mixed_ref=1 me_range=16 chroma_me=1 trellis=2 8x8dct=1 cqm=0 deadzone=21,11 fast_pskip=1 chroma_qp_offset=-2 threads=18 lookahead_threads=3 sliced_threads=0 nr=0 decimate=1 interlaced=0 bluray_compat=0 constrained_intra=0 bframes=3 b_pyramid=2 b_adapt=1 b_bias=0 direct=3 weightb=1 open_gop=0 weightp=2 keyint=250 keyint_min=25 scenecut=40 intra_refresh=0 rc_lookahead=50 rc=cbr mbtree=1 bitrate=4000 ratetol=1.0 qcomp=0.60 qpmin=0 qpmax=69 qpstep=4 vbv_maxrate=4000 vbv_bufsize=4000 nal_hrd=none filler=0 ip_ratio=1.40 aq=1:1.00\nOutput #0, mp4, to 'C:\\Users\\Peter\\Desktop\\stuff\\MIUN\\quantitative_research\\video_compression\\compressed_videos\\BVI-HD\\h264\\4\\Typing_1920x1080_60fps_h264.mp4':\n  Metadata:\n    major_brand     : isom\n    minor_version   : 512\n    compatible_brands: isomiso2avc1mp41\n    encoder         : Lavf62.3.100\n  Stream #0:0(und): Video: h264 (avc1 / 0x31637661), yuv420p(tv, progressive), 1920x1080, q=2-31, 4000 kb/s, 60 fps, 15360 tbn (default)\n    Metadata:\n      encoder         : Lavc62.11.100 libx264\n      handler_name    : VideoHandler\n      vendor_id       : [0][0][0][0]\n    Side data:\n      cpb: bitrate max/min/avg: 4000000/0/4000000 buffer size: 4000000 vbv_delay: N/A\nframe=    0 fps=0.0 q=0.0 size=       0KiB time=N/A bitrate=N/A speed=N/A elapsed=0:00:00.52    \nframe=    0 fps=0.0 q=0.0 size=       0KiB time=N/A bitrate=N/A speed=N/A elapsed=0:00:01.05    \nframe=   29 fps= 18 q=31.0 size=       0KiB time=00:00:00.43 bitrate=   0.9kbits/s speed=0.269x elapsed=0:00:01.61    \nframe=   57 fps= 26 q=31.0 size=     256KiB time=00:00:00.86 bitrate=2420.2kbits/s speed=0.392x elapsed=0:00:02.20    \nframe=   85 fps= 30 q=31.0 size=     256KiB time=00:00:01.31 bitrate=1593.1kbits/s speed=0.465x elapsed=0:00:02.83    \nframe=  113 fps= 33 q=31.0 size=     512KiB time=00:00:01.83 bitrate=2288.0kbits/s speed=0.534x elapsed=0:00:03.43    \nframe=  137 fps= 34 q=30.0 size=     768KiB time=00:00:02.25 bitrate=2796.4kbits/s speed=0.567x elapsed=0:00:03.97    \nframe=  157 fps= 35 q=30.0 size=     768KiB time=00:00:02.58 bitrate=2435.6kbits/s speed=0.574x elapsed=0:00:04.49    \nframe=  183 fps= 36 q=30.0 size=    1024KiB time=00:00:03.01 bitrate=2780.9kbits/s speed=0.599x elapsed=0:00:05.03    \nframe=  209 fps= 37 q=30.0 size=    1280KiB time=00:00:03.40 bitrate=3084.2kbits/s speed=0.608x elapsed=0:00:05.59    \nframe=  233 fps= 38 q=30.0 size=    1280KiB time=00:00:03.81 bitrate=2747.5kbits/s speed=0.617x elapsed=0:00:06.18    \nframe=  259 fps= 38 q=30.0 size=    1792KiB time=00:00:04.21 bitrate=3481.5kbits/s speed=0.623x elapsed=0:00:06.76    \nframe=  297 fps= 41 q=-1.0 size=    2048KiB time=00:00:04.91 bitrate=3412.4kbits/s speed=0.671x elapsed=0:00:07.32    \n[mp4 @ 000001f7fd521640] Starting second pass: moving the moov atom to the beginning of the file\n[out#0/mp4 @ 000001f7fd521500] video:2074KiB audio:0KiB subtitle:0KiB other streams:0KiB global headers:0KiB muxing overhead: 0.211233%\nframe=  300 fps= 41 q=-1.0 Lsize=    2079KiB time=00:00:04.96 bitrate=3428.8kbits/s speed=0.677x elapsed=0:00:07.33    \n[libx264 @ 000001f7ff0f0940] frame I:2     Avg QP:25.47  size: 85154\n[libx264 @ 000001f7ff0f0940] frame P:76    Avg QP:24.72  size: 14437\n[libx264 @ 000001f7ff0f0940] frame B:222   Avg QP:26.42  size:  3855\n[libx264 @ 000001f7ff0f0940] consecutive B-frames:  1.3%  0.0%  0.0% 98.7%\n[libx264 @ 000001f7ff0f0940] mb I  I16..4: 18.7% 78.1%  3.1%\n[libx264 @ 000001f7ff0f0940] mb P  I16..4:  3.1%  6.2%  0.1%  P16..4: 36.8%  2.8%  2.5%  0.0%  0.0%    skip:48.4%\n[libx264 @ 000001f7ff0f0940] mb B  I16..4:  0.3%  0.6%  0.0%  B16..8: 19.6%  1.3%  0.2%  direct: 0.9%  skip:77.1%  L0:49.5% L1:48.5% BI: 2.0%\n[libx264 @ 000001f7ff0f0940] 8x8 transform intra:67.2% inter:92.3%\n[libx264 @ 000001f7ff0f0940] direct mvs  spatial:95.5% temporal:4.5%\n[libx264 @ 000001f7ff0f0940] coded y,uvDC,uvAC intra: 42.0% 54.9% 9.6% inter: 3.3% 8.0% 0.2%\n[libx264 @ 000001f7ff0f0940] i16 v,h,dc,p:  9% 34%  7% 50%\n[libx264 @ 000001f7ff0f0940] i8 v,h,dc,ddl,ddr,vr,hd,vl,hu:  8% 20% 20%  5% 11%  6% 12%  6% 12%\n[libx264 @ 000001f7ff0f0940] i4 v,h,dc,ddl,ddr,vr,hd,vl,hu:  5% 15%  5%  6% 24% 10% 17%  6% 12%\n[libx264 @ 000001f7ff0f0940] i8c dc,h,v,p: 47% 35% 12%  6%\n[libx264 @ 000001f7ff0f0940] Weighted P-Frames: Y:0.0% UV:0.0%\n[libx264 @ 000001f7ff0f0940] ref P L0: 42.6% 10.9% 20.3% 11.1% 15.2%\n[libx264 @ 000001f7ff0f0940] ref B L0: 66.4% 19.6% 10.9%  3.1%\n[libx264 @ 000001f7ff0f0940] ref B L1: 88.6% 11.4%\n[libx264 @ 000001f7ff0f0940] kb/s:3397.50\n",
  "seconds": 7.63635516166687,
  "probe_out": {}
}